<svg xmlns="http://www.w3.org/2000/svg" viewBox="0 0 394.319 372.652">
  <path d="M116.03 178.106a7.5 7.5 0 01-7.5-7.5v-35.751a7.5 7.5 0 017.5-7.5 7.5 7.5 0 017.5 7.5v35.751a7.5 7.5 0 01-7.5 7.5z" fill="#efd176"/>
  <path d="M83.621 251.47h64.816v121.182H83.621z" fill="#de5c6e"/>
  <path d="M148.437 251.47c14.876 0 24.153-17.874 18.775-34.002-7.394-22.172-31.116-36.044-45.449-58.143-2.688-4.145-8.78-4.145-11.469 0-14.332 22.099-38.055 35.971-45.449 58.143-5.378 16.128 3.9 34.002 18.775 34.002z" fill="#8eafe2"/>
  <path d="M258.118 54.594a7.5 7.5 0 01-7.5-7.5V7.5a7.5 7.5 0 017.5-7.5 7.5 7.5 0 017.5 7.5v39.594a7.5 7.5 0 01-7.5 7.5z" fill="#efd176"/>
  <path d="M328.57 206.216c0-34.242-60.604-123.539-70.452-133.61-9.848 10.071-70.45 99.368-70.45 133.61z" fill="#e8899e"/>
  <path d="M268.013 130.766a7.491 7.491 0 01-6.22-3.302 4.43 4.43 0 00-7.348 0 7.501 7.501 0 01-12.429-8.398 19.414 19.414 0 0116.102-8.559 19.411 19.411 0 0116.103 8.559 7.5 7.5 0 01-6.208 11.7zM244.948 163.369a7.491 7.491 0 01-6.22-3.302 4.43 4.43 0 00-7.35 0 7.5 7.5 0 01-12.429-8.398 19.414 19.414 0 0116.104-8.559 19.41 19.41 0 0116.103 8.559 7.5 7.5 0 01-6.208 11.7zM291.08 163.369a7.491 7.491 0 01-6.222-3.302 4.43 4.43 0 00-7.348 0 7.5 7.5 0 01-12.429-8.398 19.414 19.414 0 0116.103-8.559 19.411 19.411 0 0116.103 8.559 7.5 7.5 0 01-6.208 11.7z" fill="#fcf2d0"/>
  <path d="M187.667 206.216h140.901v166.436h-140.9z" fill="#de5c6e"/>
  <path d="M341.594 178.106a7.5 7.5 0 01-7.5-7.5v-35.751a7.5 7.5 0 017.5-7.5 7.5 7.5 0 017.5 7.5v35.751a7.5 7.5 0 01-7.5 7.5z" fill="#efd176"/>
  <path d="M309.186 251.47h64.816v121.182h-64.816z" fill="#de5c6e"/>
  <path d="M381.67 294.044h-80.152c-5.628 0-10.19 4.562-10.19 10.19v68.417h100.533v-68.417c0-5.628-4.563-10.19-10.19-10.19z" fill="#e8899e"/>
  <path d="M381.67 294.044h-80.152c-5.628 0-10.19 4.563-10.19 10.19v14.149h100.533v-14.149c0-5.628-4.563-10.19-10.19-10.19z" fill="#fcf2d0"/>
  <path d="M374.002 251.47c14.876 0 24.153-17.874 18.775-34.002-7.394-22.172-31.116-36.044-45.448-58.143-2.688-4.145-8.78-4.145-11.469 0-14.332 22.099-38.055 35.971-45.448 58.143-5.378 16.128 3.9 34.002 18.775 34.002z" fill="#e8899e"/>
  <path d="M381.354 249.874c-10.128-35.911-28.41-57.733-55.192-77.95-5.87 6.676-12.224 12.783-18.033 18.981 19.345 16.274 33.52 34.472 42.666 60.565h23.206c2.647 0 5.112-.575 7.353-1.596z" fill="#89d47f"/>
  <path d="M287.413 220.681a7.5 7.5 0 01-7.5-7.5V177.43a7.5 7.5 0 017.5-7.5 7.5 7.5 0 017.5 7.5v35.751a7.5 7.5 0 01-7.5 7.5z" fill="#efd176"/>
  <path d="M255.006 294.044h64.816v78.608h-64.816z" fill="#e8899e"/>
  <path d="M319.821 294.044c14.876 0 24.153-17.874 18.775-34.002-7.394-22.172-31.116-36.044-45.448-58.143-2.688-4.145-8.78-4.145-11.469 0-14.332 22.099-38.055 35.971-45.449 58.143-5.378 16.128 3.9 34.002 18.775 34.002z" fill="#89d47f"/>
  <g transform="translate(-58.84)" fill="#f7ef87">
    <circle r="7.408" transform="rotate(-13.24 320.09 267.871)" cy="267.831" cx="320.065"/>
    <circle r="7.408" transform="rotate(-13.24 346.282 267.873)" cy="267.831" cx="346.254"/>
    <circle r="7.408" transform="rotate(-13.24 372.474 267.874)" cy="267.831" cx="372.444"/>
    <circle r="7.408" cy="243.183" cx="333.16"/>
    <circle r="7.408" cy="243.183" cx="359.349"/>
  </g>
  <path d="M179.334 149.563a7.5 7.5 0 01-7.5-7.5v-35.751a7.5 7.5 0 017.5-7.5 7.5 7.5 0 017.5 7.5v35.751a7.5 7.5 0 01-7.5 7.5z" fill="#efd176"/>
  <path d="M146.926 222.926h64.816v149.726h-64.816z" fill="#e8899e"/>
  <path d="M219.41 273.326h-80.152c-5.628 0-10.19 4.562-10.19 10.19v89.135h100.533v-89.135c0-5.627-4.563-10.19-10.19-10.19z" fill="#e8899e"/>
  <path d="M219.41 273.326h-80.152c-5.628 0-10.19 4.562-10.19 10.19v14.149h100.533v-14.149c0-5.627-4.563-10.19-10.19-10.19zM211.742 222.926c14.876 0 24.153-17.874 18.775-34.002-7.394-22.172-31.116-36.044-45.449-58.143-2.688-4.145-8.78-4.145-11.469 0-14.332 22.099-38.055 35.971-45.449 58.143-5.378 16.128 3.9 34.002 18.775 34.002z" fill="#fcf2d0"/>
  <path d="M191.733 222.926c14.092-30.354 8.76-57.777-12.398-95.253-21.159 37.477-26.49 64.899-12.398 95.253z" fill="#8eafe2"/>
  <path d="M52.724 149.563a7.5 7.5 0 01-7.5-7.5v-35.751a7.5 7.5 0 017.5-7.5 7.5 7.5 0 017.5 7.5v35.751a7.5 7.5 0 01-7.5 7.5z" fill="#efd176"/>
  <path d="M20.316 222.926h64.816v149.726H20.316z" fill="#e8899e"/>
  <path d="M92.8 287.721H12.648c-5.628 0-10.19 4.562-10.19 10.19v74.74h100.533v-74.74c0-5.628-4.563-10.19-10.19-10.19z" fill="#e8899e"/>
  <path d="M85.132 222.926c14.876 0 24.154-17.874 18.775-34.002-7.394-22.172-31.116-36.044-45.449-58.143-2.688-4.145-8.78-4.145-11.469 0-14.332 22.099-38.055 35.971-45.448 58.143-5.378 16.128 3.9 34.002 18.775 34.002z" fill="#89d47f"/>
  <path d="M95.395 173.186c-5.855-7.893-13.383-15.092-20.748-22.772-22.666 22.918-55.895 37-49.455 72.512h33.782c-3.07-23.875 22.89-32.128 36.421-49.74zM253.831 30.875a5.444 5.444 0 018.575 0c8.686 11.047 21.644 15.927 21.644 30.14 0 12.243-11.61 22.167-25.93 22.167-14.322 0-25.932-9.925-25.932-22.167 0-14.212 12.957-19.092 21.643-30.14z" fill="#f7ef87"/>
  <path d="M179.334 349.563a7.5 7.5 0 01-7.5-7.5v-15.779a7.5 7.5 0 017.5-7.5 7.5 7.5 0 017.5 7.5v15.779a7.5 7.5 0 01-7.5 7.5zM52.724 355.92a7.5 7.5 0 01-7.5-7.5v-15.779a7.5 7.5 0 017.5-7.5 7.5 7.5 0 017.5 7.5v15.779a7.5 7.5 0 01-7.5 7.5z" fill="#4e5660"/>
  <path d="M92.8 287.721H12.648c-5.628 0-10.19 4.563-10.19 10.19v14.149h100.533v-14.149c0-5.628-4.563-10.19-10.19-10.19z" fill="#fcf2d0"/>
</svg>
