<?xml version="1.0" encoding="UTF-8" standalone="no"?>
<svg
   xmlns:dc="http://purl.org/dc/elements/1.1/"
   xmlns:cc="http://creativecommons.org/ns#"
   xmlns:rdf="http://www.w3.org/1999/02/22-rdf-syntax-ns#"
   xmlns:svg="http://www.w3.org/2000/svg"
   xmlns="http://www.w3.org/2000/svg"
   version="1.1"
   width="432.87"
   viewBox="0 0 432.87 512"
   height="512"
   enable-background="new 0 0 512 512"
   id="Capa_1">
  <metadata
     id="metadata103">
    <rdf:RDF>
      <cc:Work
         rdf:about="">
        <dc:format>image/svg+xml</dc:format>
        <dc:type
           rdf:resource="http://purl.org/dc/dcmitype/StillImage" />
        <dc:title></dc:title>
      </cc:Work>
    </rdf:RDF>
  </metadata>
  <defs
     id="defs101" />
  <path
     style="fill:#e8899e"
     id="path2"
     d="M 407.517,512 H 34.248 c -4.913,0 -8.895,-3.983 -8.895,-8.895 V 420.56 H 407.518 V 512 Z" />
  <path
     style="fill:#efd176"
     id="path4"
     d="m 135.305,178.106 c -4.142,0 -7.5,-3.357 -7.5,-7.5 v -35.751 c 0,-4.143 3.358,-7.5 7.5,-7.5 4.142,0 7.5,3.357 7.5,7.5 v 35.751 c 0,4.143 -3.358,7.5 -7.5,7.5 z" />
  <path
     style="fill:#de5c6e"
     id="path6"
     d="m 102.897,251.47 h 64.816 v 121.182 h -64.816 z" />
  <path
     style="fill:#8eafe2"
     id="path8"
     d="m 167.713,251.47 c 14.876,0 24.153,-17.874 18.775,-34.002 -7.394,-22.172 -31.116,-36.044 -45.449,-58.143 -2.688,-4.145 -8.781,-4.145 -11.469,0 -14.332,22.099 -38.055,35.971 -45.449,58.143 -5.378,16.128 3.9,34.002 18.775,34.002 z" />
  <path
     style="fill:#efd176"
     id="path10"
     d="m 277.394,54.594 c -4.142,0 -7.5,-3.357 -7.5,-7.5 V 7.5 c 0,-4.143 3.358,-7.5 7.5,-7.5 4.142,0 7.5,3.357 7.5,7.5 v 39.594 c 0,4.142 -3.358,7.5 -7.5,7.5 z" />
  <path
     style="fill:#e8899e"
     id="path12"
     d="m 347.845,206.216 c 0,-34.242 -60.603,-123.539 -70.451,-133.61 -9.848,10.071 -70.451,99.368 -70.451,133.61 z" />
  <path
     style="fill:#fcf2d0"
     id="path14"
     d="m 287.289,130.766 c -2.408,0 -4.772,-1.157 -6.221,-3.302 -0.828,-1.226 -2.202,-1.957 -3.674,-1.957 -1.473,0 -2.846,0.731 -3.674,1.957 -2.319,3.432 -6.981,4.333 -10.413,2.016 -3.432,-2.319 -4.335,-6.982 -2.016,-10.414 3.621,-5.359 9.641,-8.559 16.103,-8.559 6.462,0 12.482,3.199 16.103,8.559 2.319,3.433 1.416,8.095 -2.016,10.414 -1.287,0.869 -2.747,1.286 -4.192,1.286 z" />
  <path
     style="fill:#fcf2d0"
     id="path16"
     d="m 264.224,163.369 c -2.408,0 -4.772,-1.157 -6.221,-3.302 -0.828,-1.226 -2.202,-1.957 -3.674,-1.957 -1.473,0 -2.847,0.731 -3.675,1.957 -2.319,3.432 -6.982,4.333 -10.413,2.016 -3.432,-2.319 -4.335,-6.981 -2.016,-10.414 3.621,-5.359 9.641,-8.559 16.104,-8.559 6.463,0 12.482,3.199 16.103,8.559 2.319,3.433 1.417,8.095 -2.016,10.414 -1.287,0.869 -2.748,1.286 -4.192,1.286 z" />
  <path
     style="fill:#fcf2d0"
     id="path18"
     d="m 310.355,163.369 c -2.408,0 -4.772,-1.157 -6.221,-3.302 -0.828,-1.226 -2.202,-1.957 -3.674,-1.957 -1.473,0 -2.846,0.731 -3.674,1.957 -2.319,3.432 -6.982,4.333 -10.413,2.016 -3.432,-2.319 -4.335,-6.981 -2.016,-10.414 3.621,-5.359 9.641,-8.559 16.103,-8.559 6.462,0 12.482,3.199 16.103,8.559 2.319,3.433 1.416,8.095 -2.016,10.414 -1.287,0.869 -2.747,1.286 -4.192,1.286 z" />
  <path
     style="fill:#de5c6e"
     id="path20"
     d="M 206.943,206.216 H 347.844 V 372.652 H 206.943 Z" />
  <path
     style="fill:#89d47f"
     id="path22"
     d="M 418.964,420.56 H 13.906 C 6.226,420.56 0,414.334 0,406.654 v -20.096 c 0,-7.68 6.226,-13.906 13.906,-13.906 h 405.058 c 7.68,0 13.906,6.226 13.906,13.906 v 20.096 c 0,7.68 -6.226,13.906 -13.906,13.906 z" />
  <path
     style="fill:#efd176"
     id="path24"
     d="m 360.87,178.106 c -4.142,0 -7.5,-3.357 -7.5,-7.5 v -35.751 c 0,-4.143 3.358,-7.5 7.5,-7.5 4.142,0 7.5,3.357 7.5,7.5 v 35.751 c 0,4.143 -3.358,7.5 -7.5,7.5 z" />
  <path
     style="fill:#de5c6e"
     id="path26"
     d="m 328.462,251.47 h 64.816 v 121.182 h -64.816 z" />
  <path
     style="fill:#e8899e"
     id="path28"
     d="m 400.946,294.044 h -80.152 c -5.628,0 -10.19,4.562 -10.19,10.19 v 68.417 h 100.533 v -68.417 c 0,-5.628 -4.563,-10.19 -10.191,-10.19 z" />
  <path
     style="fill:#fcf2d0"
     id="path30"
     d="m 400.946,294.044 h -80.152 c -5.628,0 -10.19,4.563 -10.19,10.19 v 14.149 h 100.533 v -14.149 c 0,-5.628 -4.563,-10.19 -10.191,-10.19 z" />
  <path
     style="fill:#e8899e"
     id="path32"
     d="m 393.278,251.47 c 14.876,0 24.153,-17.874 18.775,-34.002 -7.394,-22.172 -31.116,-36.044 -45.448,-58.143 -2.688,-4.145 -8.781,-4.145 -11.469,0 -14.332,22.099 -38.055,35.971 -45.448,58.143 -5.378,16.128 3.9,34.002 18.775,34.002 z" />
  <path
     style="fill:#89d47f"
     id="path34"
     d="m 400.63,249.874 c -10.128,-35.911 -28.411,-57.733 -55.192,-77.95 -5.87,6.676 -12.224,12.783 -18.033,18.981 19.345,16.274 33.519,34.472 42.666,60.565 h 23.206 c 2.647,0 5.112,-0.575 7.353,-1.596 z" />
  <path
     style="fill:#efd176"
     id="path36"
     d="m 306.689,220.681 c -4.142,0 -7.5,-3.357 -7.5,-7.5 V 177.43 c 0,-4.143 3.358,-7.5 7.5,-7.5 4.142,0 7.5,3.357 7.5,7.5 v 35.751 c 0,4.142 -3.358,7.5 -7.5,7.5 z" />
  <path
     style="fill:#e8899e"
     id="path38"
     d="m 274.282,294.044 h 64.816 v 78.608 h -64.816 z" />
  <path
     style="fill:#89d47f"
     id="path40"
     d="m 339.097,294.044 c 14.876,0 24.153,-17.874 18.775,-34.002 -7.394,-22.172 -31.116,-36.044 -45.448,-58.143 -2.688,-4.145 -8.781,-4.145 -11.469,0 -14.332,22.099 -38.055,35.971 -45.449,58.143 -5.378,16.128 3.9,34.002 18.775,34.002 z" />
  <g
     transform="translate(-39.565)"
     style="fill:#f7ef87"
     id="g52">
    <circle
       r="7.408"
       id="ellipse42"
       transform="matrix(0.973,-0.229,0.229,0.973,-52.833,80.422)"
       cy="267.83099"
       cx="320.065" />
    <circle
       r="7.408"
       id="ellipse44"
       transform="matrix(0.973,-0.229,0.229,0.973,-52.137,86.42)"
       cy="267.83099"
       cx="346.254" />
    <circle
       r="7.408"
       id="ellipse46"
       transform="matrix(0.973,-0.229,0.229,0.973,-51.441,92.418)"
       cy="267.83099"
       cx="372.444" />
    <circle
       id="circle48"
       r="7.408"
       cy="243.183"
       cx="333.16" />
    <circle
       id="circle50"
       r="7.408"
       cy="243.183"
       cx="359.349" />
  </g>
  <path
     style="fill:#efd176"
     id="path54"
     d="m 198.61,149.563 c -4.142,0 -7.5,-3.357 -7.5,-7.5 v -35.751 c 0,-4.143 3.358,-7.5 7.5,-7.5 4.142,0 7.5,3.357 7.5,7.5 v 35.751 c 0,4.142 -3.358,7.5 -7.5,7.5 z" />
  <path
     style="fill:#e8899e"
     id="path56"
     d="m 166.202,222.926 h 64.816 v 149.726 h -64.816 z" />
  <path
     style="fill:#e8899e"
     id="path58"
     d="m 238.686,273.326 h -80.152 c -5.628,0 -10.19,4.562 -10.19,10.19 v 89.135 h 100.533 v -89.135 c 0,-5.627 -4.563,-10.19 -10.191,-10.19 z" />
  <path
     style="fill:#fcf2d0"
     id="path60"
     d="m 238.686,273.326 h -80.152 c -5.628,0 -10.19,4.562 -10.19,10.19 v 14.149 h 100.533 v -14.149 c 0,-5.627 -4.563,-10.19 -10.191,-10.19 z" />
  <path
     style="fill:#fcf2d0"
     id="path62"
     d="m 231.018,222.926 c 14.876,0 24.153,-17.874 18.775,-34.002 -7.394,-22.172 -31.116,-36.044 -45.449,-58.143 -2.688,-4.145 -8.781,-4.145 -11.469,0 -14.332,22.099 -38.055,35.971 -45.449,58.143 -5.378,16.128 3.9,34.002 18.775,34.002 z" />
  <path
     style="fill:#8eafe2"
     id="path64"
     d="m 211.009,222.926 c 14.092,-30.354 8.76,-57.777 -12.398,-95.253 -21.159,37.477 -26.491,64.899 -12.398,95.253 z" />
  <path
     style="fill:#efd176"
     id="path66"
     d="m 72,149.563 c -4.142,0 -7.5,-3.357 -7.5,-7.5 v -35.751 c 0,-4.143 3.358,-7.5 7.5,-7.5 4.142,0 7.5,3.357 7.5,7.5 v 35.751 c 0,4.142 -3.358,7.5 -7.5,7.5 z" />
  <path
     style="fill:#e8899e"
     id="path68"
     d="m 39.592,222.926 h 64.816 V 372.652 H 39.592 Z" />
  <path
     style="fill:#e8899e"
     id="path70"
     d="M 112.076,287.721 H 31.924 c -5.628,0 -10.19,4.562 -10.19,10.19 v 74.74 h 100.533 v -74.74 c -10e-4,-5.628 -4.563,-10.19 -10.191,-10.19 z" />
  <path
     style="fill:#89d47f"
     id="path72"
     d="m 104.408,222.926 c 14.876,0 24.154,-17.874 18.775,-34.002 -7.394,-22.172 -31.116,-36.044 -45.449,-58.143 -2.688,-4.145 -8.781,-4.145 -11.469,0 -14.332,22.099 -38.055,35.971 -45.448,58.143 -5.378,16.128 3.9,34.002 18.775,34.002 z" />
  <path
     style="fill:#f7ef87"
     id="path74"
     d="m 114.671,173.186 c -5.855,-7.893 -13.383,-15.092 -20.748,-22.772 -22.666,22.918 -55.895,37 -49.455,72.512 H 78.25 c -3.071,-23.875 22.89,-32.128 36.421,-49.74 z" />
  <path
     style="fill:#f7ef87"
     id="path76"
     d="m 273.107,30.875 c 2.19,-2.786 6.384,-2.786 8.575,0 8.686,11.047 21.644,15.927 21.644,30.14 0,12.243 -11.61,22.167 -25.931,22.167 -14.321,0 -25.931,-9.925 -25.931,-22.167 -0.001,-14.212 12.957,-19.092 21.643,-30.14 z" />
  <path
     style="fill:#4e5660"
     id="path78"
     d="m 198.61,349.563 c -4.142,0 -7.5,-3.357 -7.5,-7.5 v -15.779 c 0,-4.143 3.358,-7.5 7.5,-7.5 4.142,0 7.5,3.357 7.5,7.5 v 15.779 c 0,4.142 -3.358,7.5 -7.5,7.5 z" />
  <path
     style="fill:#4e5660"
     id="path80"
     d="m 72,355.92 c -4.142,0 -7.5,-3.357 -7.5,-7.5 v -15.779 c 0,-4.143 3.358,-7.5 7.5,-7.5 4.142,0 7.5,3.357 7.5,7.5 v 15.779 c 0,4.143 -3.358,7.5 -7.5,7.5 z" />
  <path
     style="fill:#4e5660"
     id="path82"
     d="m 227.951,449.867 h -18.186 c -12.924,0 -23.402,10.477 -23.402,23.402 V 512 h 64.99 v -38.731 c -0.001,-12.925 -10.478,-23.402 -23.402,-23.402 z" />
  <path
     style="fill:#4e5660"
     id="path84"
     d="M 111.99,449.867 H 93.804 c -12.924,0 -23.402,10.477 -23.402,23.402 V 512 h 64.99 v -38.731 c 0,-12.925 -10.477,-23.402 -23.402,-23.402 z" />
  <path
     style="fill:#de5c6e"
     id="path86"
     d="m 323.726,432.653 h 67.59 V 512 h -67.59 z" />
  <path
     style="fill:#e8899e"
     id="path88"
     d="m 391.316,450.271 c -3.662,-5.421 -9.864,-8.984 -16.898,-8.984 -5.708,0 -10.868,2.347 -14.568,6.129 -1.278,1.307 -3.382,1.307 -4.66,0 -3.699,-3.782 -8.859,-6.129 -14.568,-6.129 -7.034,0 -13.235,3.564 -16.897,8.984 V 420.56 h 67.59 v 29.711 z" />
  <path
     style="fill:#fcf2d0"
     id="path90"
     d="m 291.564,420.56 h 32.162 V 512 h -32.162 z" />
  <path
     style="fill:#fcf2d0"
     id="path92"
     d="m 414.583,512 h -23.267 v -91.44 h 32.162 v 82.545 c 0,4.912 -3.982,8.895 -8.895,8.895 z" />
  <path
     style="fill:#5ec783"
     id="path94"
     d="m 344.801,348.177 -59.957,60.276 c -4.454,4.478 -1.283,12.106 5.033,12.106 h 135.287 c 6.316,0 9.488,-7.628 5.033,-12.106 L 370.24,348.177 c -7.013,-7.051 -18.425,-7.051 -25.439,0 z" />
  <path
     style="fill:#fcf2d0"
     id="path96"
     d="M 112.076,287.721 H 31.924 c -5.628,0 -10.19,4.563 -10.19,10.19 v 14.149 h 100.533 v -14.149 c -10e-4,-5.628 -4.563,-10.19 -10.191,-10.19 z" />
</svg>
