<svg xmlns="http://www.w3.org/2000/svg" fill="#fff" viewBox="0 0 550.87 491.615">
  <path d="M463.345 292.348c.05.02.099.035.147.055l.051.02z"/>
  <path d="M484.082 292.02c-6.6 2.819-13.967 3.012-20.59.383l-124.789-50.418c-13.744-5.553-20.126-21.397-14.574-35.138l8.534-21.122c2.68-6.634 7.71-11.876 14.335-14.691 6.625-2.815 13.884-2.907 20.519-.226l36.211 14.622c-16.864-43.842-50.918-78.667-94.489-96.27-86.432-34.921-185.172 6.985-220.096 93.425-34.924 86.44 6.982 185.17 93.418 220.093 64.714 26.146 140.042 9.32 187.442-41.872 10.772-11.627 27.888-15.454 42.582-9.517a38.127 38.127 0 0111.696 7.443c15.542 14.386 16.471 38.739 2.08 54.275-68.94 74.435-178.481 98.91-272.58 60.892C28.074 423.11-32.88 279.516 17.91 153.804 68.7 28.094 212.23-32.884 337.937 17.905 395.964 41.35 443.006 86.922 469.544 144.28l8.161-20.201c5.554-13.745 21.363-20.287 35.108-14.734l21.121 8.534c13.745 5.553 20.55 21.232 14.998 34.977l-50.265 124.41c-2.69 6.657-7.941 11.955-14.585 14.754z"/>
</svg>
